<svg width="60px" height="60px" xmlns="http://www.w3.org/2000/svg" xmlns:xlink="http://www.w3.org/1999/xlink" viewBox="0 0 57.06 49"><defs><style>.cls-1,.cls-2{fill:#316df3;}.cls-1,.cls-6,.cls-7,.cls-8{opacity:0.8;}.cls-2,.cls-3,.cls-4,.cls-5{opacity:0.9;}.cls-3{fill:#fc818e;}.cls-4,.cls-6{fill:#8044cd;}.cls-5{fill:#f9bb6f;}.cls-7{fill:#fab45c;}.cls-8{fill:#fd727f;}.cls-9{fill:#fff;}.cls-10{fill:url(#Безымянный_градиент_4);}</style><linearGradient id="Безымянный_градиент_4" x1="13.45" y1="27.06" x2="38.12" y2="27.06" gradientUnits="userSpaceOnUse"><stop offset="0.46" stop-color="#fff"/><stop offset="0.47" stop-color="#fcfbfe"/><stop offset="0.49" stop-color="#e3d5f4" stop-opacity="0.96"/><stop offset="0.52" stop-color="#cbb3eb" stop-opacity="0.92"/><stop offset="0.55" stop-color="#b795e3" stop-opacity="0.89"/><stop offset="0.58" stop-color="#a67bdc" stop-opacity="0.86"/><stop offset="0.62" stop-color="#9867d6" stop-opacity="0.84"/><stop offset="0.66" stop-color="#8d57d2" stop-opacity="0.82"/><stop offset="0.71" stop-color="#854ccf" stop-opacity="0.81"/><stop offset="0.79" stop-color="#8146cd" stop-opacity="0.8"/><stop offset="1" stop-color="#8044cd" stop-opacity="0.8"/></linearGradient></defs><g id="Слой_2" data-name="Слой 2"><g id="Слой_1-2" data-name="Слой 1"><circle class="cls-1" cx="24.66" cy="28.85" r="20.15"/><circle class="cls-2" cx="54" cy="26.92" r="3.06"/><circle class="cls-3" cx="28.85" cy="3.06" r="3.06"/><circle class="cls-4" cx="1.29" cy="27.72" r="1.29"/><circle class="cls-5" cx="4.35" cy="42.07" r="1.77"/><circle class="cls-6" cx="19.18" cy="24.02" r="15.63"/><circle class="cls-7" cx="36.75" cy="20.31" r="12.25"/><circle class="cls-8" cx="33.85" cy="36.75" r="11.93"/><polygon class="cls-9" points="16.44 32.24 19.66 32.24 25.79 21.6 33.2 34.82 14.88 34.82 13.45 37.68 38.12 37.68 25.78 16.44 16.44 32.24"/><polygon class="cls-10" points="16.44 32.24 19.66 32.24 25.79 21.6 33.2 34.82 14.88 34.82 13.45 37.68 38.12 37.68 25.78 16.44 16.44 32.24"/></g></g></svg>